<?xml version="1.0" encoding="UTF-8"?><svg xmlns="http://www.w3.org/2000/svg" xmlns:xlink="http://www.w3.org/1999/xlink" contentScriptType="text/ecmascript" width="375pt" zoomAndPan="magnify" contentStyleType="text/css" viewBox="0 0 375 374.999991" height="374.999991pt" preserveAspectRatio="xMidYMid meet" version="1.2"><defs><clipPath xml:id="clip1" id="clip1"><path d="M 118 13.4375 L 213 13.4375 L 213 81 L 118 81 Z M 118 13.4375 "/></clipPath></defs><g xml:id="surface1" id="surface1"><g clip-rule="nonzero" clip-path="url(#clip1)"><path style=" stroke:none;fill-rule:nonzero;fill:rgb(36.468506%,25.099182%,18.818665%);fill-opacity:1;" d="M 188.246094 17.078125 C 172.980469 24.730469 157.667969 32.40625 143.421875 41.828125 C 137.941406 45.449219 132.574219 49.375 128.292969 54.351562 C 121.996094 61.683594 118.304688 71.214844 118.015625 80.875 C 118.867188 74.203125 119.710938 67.535156 120.558594 60.863281 C 120.832031 58.703125 121.132812 56.472656 122.246094 54.605469 C 123.613281 52.316406 126.015625 50.871094 128.316406 49.527344 C 147.125 38.546875 165.925781 27.5625 184.734375 16.578125 C 187.269531 15.09375 189.957031 13.570312 192.894531 13.496094 C 194.679688 13.453125 196.425781 13.949219 198.136719 14.445312 C 202.929688 15.824219 207.726562 17.203125 212.519531 18.582031 C 180.421875 36.011719 149.902344 56.34375 121.457031 79.25 C 120.503906 80.015625 118.273438 79.707031 119.035156 78.742188 C 123.855469 74.242188 128.679688 69.734375 133.917969 65.726562 C 156.886719 48.160156 187.394531 40.503906 206.207031 18.546875 C 202.925781 19.140625 199.46875 18.707031 196.445312 17.304688 C 195.128906 16.703125 193.84375 15.90625 192.394531 15.828125 C 190.9375 15.75 189.554688 16.421875 188.246094 17.078125 "/></g><path style=" stroke:none;fill-rule:nonzero;fill:rgb(36.468506%,25.099182%,18.818665%);fill-opacity:1;" d="M 122.753906 56.816406 C 130.515625 58.335938 138.421875 59.113281 146.335938 59.148438 C 139.851562 57.96875 133.371094 56.789062 126.886719 55.609375 C 125.023438 55.273438 122.296875 55.605469 122.335938 57.496094 L 122.753906 56.816406 "/><path style=" stroke:none;fill-rule:nonzero;fill:rgb(36.468506%,25.099182%,18.818665%);fill-opacity:1;" d="M 155.191406 35.054688 C 163.761719 35.523438 172.285156 36.8125 180.609375 38.890625 C 173.824219 36.777344 167.039062 34.667969 160.257812 32.558594 C 159.699219 32.382812 159.113281 32.207031 158.53125 32.300781 C 156.660156 32.59375 155.824219 35.410156 153.925781 35.351562 C 153.871094 34.683594 153.8125 34.015625 153.757812 33.347656 L 155.191406 35.054688 "/><path style=" stroke:none;fill-rule:nonzero;fill:rgb(36.468506%,25.099182%,18.818665%);fill-opacity:1;" d="M 118.375 82.304688 C 141.046875 81.171875 163.796875 81.71875 186.382812 83.941406 C 191.53125 61.527344 206.523438 42.234375 211.007812 19.683594 C 208.820312 21.085938 206.636719 22.488281 204.445312 23.890625 C 176.441406 41.898438 148.835938 60.535156 121.667969 79.773438 C 150.359375 61.707031 179.0625 43.644531 207.757812 25.582031 C 198.253906 43.742188 189.976562 62.542969 183 81.816406 C 179.652344 78.867188 174.773438 78.347656 170.34375 78.894531 C 165.910156 79.441406 161.621094 80.898438 157.183594 81.355469 C 149.449219 82.152344 141.730469 79.890625 133.960938 79.730469 C 128.667969 79.617188 123.347656 80.496094 118.375 82.304688 "/><path style=" stroke:none;fill-rule:nonzero;fill:rgb(36.468506%,25.099182%,18.818665%);fill-opacity:1;" d="M 154.957031 33.964844 C 151.308594 41.296875 148.929688 49.261719 147.964844 57.394531 C 151.722656 49.175781 154.914062 40.691406 157.5 32.03125 C 156.523438 32.304688 155.546875 32.578125 154.566406 32.851562 L 154.957031 33.964844 "/><path style=" stroke:none;fill-rule:nonzero;fill:rgb(36.468506%,25.099182%,18.818665%);fill-opacity:1;" d="M 186.171875 16.070312 C 184.304688 23.191406 182.769531 30.394531 181.566406 37.65625 C 183.402344 35.859375 184.171875 33.277344 184.875 30.808594 C 186.394531 25.46875 187.914062 20.125 189.425781 14.78125 C 187.730469 15.296875 186.148438 16.214844 184.863281 17.441406 L 186.171875 16.070312 "/><path style=" stroke:none;fill-rule:nonzero;fill:rgb(36.468506%,25.099182%,18.818665%);fill-opacity:1;" d="M 180.523438 49.910156 C 182.46875 59.683594 183.175781 69.703125 182.628906 79.660156 C 180.398438 76.757812 177.226562 74.757812 174.125 72.820312 C 166.769531 68.222656 159.414062 63.632812 152.0625 59.035156 C 151.375 60.539062 149.964844 61.6875 148.355469 62.066406 C 152.074219 62.519531 155.414062 64.476562 158.632812 66.386719 C 166.953125 71.328125 175.273438 76.269531 183.597656 81.210938 C 183.269531 67.503906 182.660156 53.804688 181.777344 40.125 C 179.234375 42.457031 179.855469 46.53125 180.523438 49.910156 "/><path style=" stroke:none;fill-rule:nonzero;fill:rgb(36.468506%,25.099182%,18.818665%);fill-opacity:1;" d="M 179.25 83.121094 C 181.515625 85.761719 185.753906 86.820312 188.625 84.855469 C 191.5 82.886719 191.65625 77.773438 188.5625 76.175781 C 187.300781 78.003906 190.105469 80.875 188.640625 82.550781 C 188.195312 83.058594 187.488281 83.234375 186.816406 83.359375 C 184.386719 83.820312 181.898438 83.957031 179.433594 83.773438 C 179.59375 84.402344 180.132812 84.914062 180.765625 85.050781 L 179.25 83.121094 "/><path style=" stroke:none;fill-rule:nonzero;fill:rgb(36.468506%,25.099182%,18.818665%);fill-opacity:1;" d="M 179.546875 85.933594 C 178.773438 86.929688 179.386719 88.519531 180.492188 89.132812 C 181.601562 89.746094 182.964844 89.617188 184.191406 89.296875 C 189.238281 87.976562 193.296875 83.457031 194.066406 78.300781 C 192.703125 78.011719 191.339844 77.726562 189.976562 77.441406 C 192.234375 77.953125 193.199219 80.925781 192.320312 83.0625 C 191.4375 85.203125 189.320312 86.566406 187.191406 87.464844 C 185.851562 88.039062 184.339844 88.480469 182.953125 88.03125 C 181.570312 87.589844 180.519531 85.90625 181.222656 84.628906 C 180.082031 85.203125 179.382812 86.542969 179.566406 87.800781 C 180.1875 87.589844 180.816406 87.382812 181.445312 87.167969 L 179.546875 85.933594 "/><path style=" stroke:none;fill-rule:nonzero;fill:rgb(36.468506%,25.099182%,18.818665%);fill-opacity:1;" d="M 193.222656 81.617188 C 192.371094 80.464844 193.8125 79.027344 195.0625 78.367188 C 218.101562 66.070312 245.421875 61.71875 271.011719 66.964844 C 296.59375 72.21875 320.179688 87.183594 335.21875 108.527344 C 337.839844 112.246094 340.203125 116.136719 342.414062 120.109375 C 343.84375 122.6875 345.226562 125.304688 346.519531 127.980469 C 339.839844 115 328.722656 104.84375 317.871094 95.019531 C 311 88.8125 304.082031 82.558594 296.097656 77.875 C 280.765625 68.882812 262.285156 66.253906 244.574219 67.847656 C 226.863281 69.449219 209.75 75.050781 193.222656 81.617188 "/><path style=" stroke:none;fill-rule:nonzero;fill:rgb(36.468506%,25.099182%,18.818665%);fill-opacity:1;" d="M 348.300781 131.78125 C 347.804688 130.671875 347.285156 129.5625 346.757812 128.464844 C 346.894531 128.722656 347.027344 128.984375 347.152344 129.242188 C 347.554688 130.082031 347.949219 130.929688 348.300781 131.78125 "/><path style=" stroke:none;fill-rule:nonzero;fill:rgb(36.468506%,25.099182%,18.818665%);fill-opacity:1;" d="M 219.519531 280.414062 C 219.375 280.734375 219.238281 281.046875 219.105469 281.351562 C 218.386719 281.152344 217.683594 280.941406 216.972656 280.726562 C 211.117188 279.003906 205.320312 277.039062 199.566406 275.054688 C 194.523438 273.300781 189.445312 271.511719 184.800781 268.882812 C 172.304688 261.832031 163.875 249.433594 156.621094 237.058594 C 152.78125 230.5 149.132812 223.789062 146.222656 216.773438 C 139.601562 200.84375 136.933594 183.316406 138.320312 166.132812 C 138.332031 166.0625 138.332031 165.996094 138.34375 165.925781 C 138.746094 161.03125 139.480469 156.167969 140.546875 151.375 C 140.816406 150.148438 141.109375 148.9375 141.429688 147.730469 C 141.4375 147.65625 141.457031 147.585938 141.480469 147.515625 C 147.453125 124.730469 161.082031 104.027344 179.628906 89.503906 C 180.933594 88.464844 183.792969 88.386719 183.316406 89.988281 C 175.101562 93.738281 169.832031 101.757812 165.007812 109.386719 C 159.347656 118.308594 153.671875 127.3125 149.324219 136.910156 C 149.203125 137.160156 149.089844 137.417969 148.988281 137.679688 C 148.101562 139.664062 147.28125 141.671875 146.523438 143.722656 C 146.046875 145.003906 145.605469 146.300781 145.199219 147.605469 C 144.808594 148.816406 144.445312 150.035156 144.109375 151.257812 C 142.816406 155.96875 141.90625 160.761719 141.351562 165.597656 C 141.335938 165.71875 141.324219 165.84375 141.316406 165.96875 C 138.125 194.890625 147.703125 225.261719 165.242188 248.894531 C 168.847656 253.746094 172.792969 258.394531 177.554688 262.109375 C 183.929688 267.082031 191.507812 270.199219 199.019531 273.148438 C 205.058594 275.527344 211.148438 277.835938 217.34375 279.75 C 218.066406 279.980469 218.792969 280.207031 219.519531 280.414062 "/><path style=" stroke:none;fill-rule:nonzero;fill:rgb(36.468506%,25.099182%,18.818665%);fill-opacity:1;" d="M 233.820312 283.65625 C 233.96875 283.671875 234.125 283.695312 234.269531 283.714844 C 234.125 284.097656 233.976562 284.46875 233.835938 284.84375 C 233.097656 284.71875 232.371094 284.574219 231.644531 284.425781 C 231.773438 284.078125 231.894531 283.714844 232.007812 283.351562 C 232.609375 283.464844 233.222656 283.558594 233.820312 283.65625 "/><path style=" stroke:none;fill-rule:nonzero;fill:rgb(36.468506%,25.099182%,18.818665%);fill-opacity:1;" d="M 357.8125 191.257812 C 356.320312 199.707031 353.410156 207.847656 349.875 215.667969 C 341.042969 235.144531 327.988281 252.929688 310.949219 265.878906 C 293.921875 278.839844 272.804688 286.78125 251.390625 286.601562 C 248.925781 286.582031 246.480469 286.460938 244.035156 286.242188 C 242.554688 286.117188 241.082031 285.949219 239.613281 285.757812 C 239.675781 285.578125 239.738281 285.402344 239.800781 285.230469 C 239.902344 284.9375 240.007812 284.660156 240.101562 284.367188 C 241.59375 284.492188 243.09375 284.574219 244.597656 284.605469 C 265.953125 285.195312 287.4375 278.21875 305.035156 265.996094 C 325.605469 251.710938 341.019531 230.648438 350.367188 207.414062 C 352.570312 201.941406 354.457031 196.304688 355.523438 190.511719 C 357.5 179.695312 356.554688 168.542969 354.941406 157.664062 C 353.636719 148.867188 351.867188 140.035156 348.351562 131.882812 C 356.804688 150.605469 361.375 171.199219 357.8125 191.257812 "/><path style=" stroke:none;fill-rule:nonzero;fill:rgb(36.468506%,25.099182%,18.818665%);fill-opacity:1;" d="M 150.804688 163.8125 C 150.753906 164.199219 150.710938 164.59375 150.675781 164.984375 C 150.632812 165.355469 150.597656 165.71875 150.5625 166.089844 C 150.46875 167.136719 150.390625 168.175781 150.328125 169.21875 C 150.367188 168.175781 150.429688 167.136719 150.519531 166.089844 C 150.5625 165.730469 150.605469 165.355469 150.632812 164.984375 C 150.691406 164.59375 150.738281 164.210938 150.804688 163.8125 "/><path style=" stroke:none;fill-rule:nonzero;fill:rgb(36.468506%,25.099182%,18.818665%);fill-opacity:1;" d="M 192.089844 95.332031 C 185.328125 104.449219 178.550781 113.570312 171.777344 122.6875 C 168.027344 127.753906 164.226562 132.914062 160.910156 138.300781 C 160.394531 139.105469 159.90625 139.921875 159.429688 140.742188 C 157.960938 143.246094 156.601562 145.800781 155.421875 148.425781 C 155 149.351562 154.59375 150.285156 154.21875 151.230469 C 152.695312 155.023438 151.550781 158.960938 150.90625 163.050781 C 150.875 163.226562 150.855469 163.390625 150.832031 163.5625 C 151.308594 159.40625 152.035156 155.285156 153.039062 151.21875 C 153.238281 150.382812 153.457031 149.542969 153.683594 148.710938 C 153.734375 148.527344 153.785156 148.347656 153.839844 148.164062 C 154.550781 145.59375 155.371094 143.050781 156.316406 140.554688 C 156.664062 139.601562 157.027344 138.648438 157.417969 137.722656 C 164.445312 120.523438 176.472656 105.328125 192.089844 95.332031 "/><path style=" stroke:none;fill-rule:nonzero;fill:rgb(36.468506%,25.099182%,18.818665%);fill-opacity:1;" d="M 222.980469 270.507812 C 222.9375 270.671875 222.882812 270.839844 222.84375 271.003906 C 221.921875 270.785156 221 270.570312 220.085938 270.328125 C 202.113281 265.714844 185.347656 257.164062 173.308594 243.300781 C 166.113281 235.011719 160.882812 225.148438 157.121094 214.828125 C 151.828125 200.332031 149.402344 184.726562 150.328125 169.339844 C 150.121094 175.738281 150.980469 182.179688 152.210938 188.484375 C 155.753906 206.609375 162.488281 224.335938 173.632812 239.066406 C 184.78125 253.796875 200.585938 265.382812 218.566406 269.617188 C 219.09375 269.738281 219.632812 269.867188 220.171875 269.972656 C 221.105469 270.179688 222.035156 270.351562 222.980469 270.507812 "/><path style=" stroke:none;fill-rule:nonzero;fill:rgb(36.468506%,25.099182%,18.818665%);fill-opacity:1;" d="M 237.789062 271.832031 C 237.65625 272.421875 237.519531 273.003906 237.378906 273.582031 C 236.515625 273.480469 235.65625 273.367188 234.796875 273.238281 C 234.910156 272.742188 235.015625 272.234375 235.109375 271.738281 C 235.996094 271.78125 236.886719 271.808594 237.789062 271.832031 "/><path style=" stroke:none;fill-rule:nonzero;fill:rgb(36.468506%,25.099182%,18.818665%);fill-opacity:1;" d="M 339.226562 201.714844 C 333.199219 218.300781 323.246094 233.210938 312.203125 247 C 307.171875 253.292969 301.804688 259.460938 295.1875 264.066406 C 281.644531 273.496094 264.304688 275.421875 247.746094 274.511719 C 246.894531 274.460938 246.046875 274.40625 245.195312 274.347656 C 244.648438 274.304688 244.105469 274.265625 243.558594 274.222656 C 243.820312 273.4375 244.054688 272.648438 244.296875 271.863281 C 245.703125 271.851562 247.113281 271.832031 248.523438 271.800781 C 248.933594 271.792969 249.347656 271.78125 249.765625 271.765625 C 260.433594 271.5 271.402344 270.859375 281.089844 266.386719 C 290.523438 262.03125 297.992188 254.402344 305.1875 246.894531 C 318.84375 232.660156 332.804688 217.625 338.722656 198.804688 C 345.453125 177.4375 340.75 153.847656 331.097656 133.632812 C 326.644531 124.316406 321.097656 115.398438 313.746094 108.148438 C 308.246094 102.71875 301.792969 98.292969 294.96875 94.65625 C 263.957031 78.1875 224.367188 79.171875 194.210938 97.152344 C 197.0625 91.035156 204.125 88.269531 210.613281 86.394531 C 233.90625 79.660156 259.46875 77.164062 282.070312 85.953125 C 297.492188 91.957031 310.601562 102.867188 321.527344 115.285156 C 330.421875 125.398438 338.160156 136.828125 342.046875 149.726562 C 347.144531 166.628906 345.257812 185.117188 339.226562 201.714844 "/><path style=" stroke:none;fill-rule:nonzero;fill:rgb(36.468506%,25.099182%,18.818665%);fill-opacity:1;" d="M 225.613281 254.265625 C 225.589844 254.671875 225.570312 255.074219 225.535156 255.484375 C 224.398438 255.15625 223.257812 254.792969 222.140625 254.410156 C 201.765625 247.484375 183.941406 232.777344 174.460938 213.40625 C 167.757812 199.707031 165.457031 184.136719 167.175781 169 C 167.191406 168.929688 167.199219 168.855469 167.210938 168.785156 C 167.738281 164.199219 168.640625 159.640625 169.902344 155.203125 C 169.972656 154.964844 170.039062 154.714844 170.109375 154.476562 C 171.300781 150.441406 172.78125 146.496094 174.554688 142.699219 C 174.660156 142.472656 174.761719 142.242188 174.867188 142.015625 C 178.726562 133.910156 183.898438 126.464844 190.300781 120.132812 C 186.652344 127.070312 182.996094 133.992188 179.339844 140.925781 C 178.933594 141.695312 178.53125 142.460938 178.128906 143.226562 C 177.941406 143.585938 177.753906 143.941406 177.578125 144.304688 C 175.734375 147.84375 173.984375 151.421875 172.554688 155.144531 C 172.433594 155.449219 172.316406 155.769531 172.203125 156.082031 C 172.027344 156.546875 171.863281 157.015625 171.707031 157.492188 C 166.273438 173.589844 168.378906 191.703125 175.648438 207.0625 C 182.925781 222.414062 195.0625 235.144531 208.992188 244.878906 C 213.167969 247.796875 217.582031 250.46875 222.179688 252.703125 C 223.308594 253.25 224.460938 253.769531 225.613281 254.265625 "/><path style=" stroke:none;fill-rule:nonzero;fill:rgb(36.468506%,25.099182%,18.818665%);fill-opacity:1;" d="M 237.632812 258.074219 C 237.363281 258.046875 237.105469 258.003906 236.84375 257.972656 C 236.859375 257.953125 236.859375 257.929688 236.84375 257.910156 C 237.105469 257.972656 237.378906 258.023438 237.632812 258.074219 "/><path style=" stroke:none;fill-rule:nonzero;fill:rgb(36.468506%,25.099182%,18.818665%);fill-opacity:1;" d="M 239.789062 258.34375 C 239.789062 258.386719 239.789062 258.429688 239.78125 258.472656 C 239.0625 258.359375 238.351562 258.230469 237.632812 258.074219 C 238.351562 258.179688 239.0625 258.261719 239.789062 258.34375 "/><path style=" stroke:none;fill-rule:nonzero;fill:rgb(36.468506%,25.099182%,18.818665%);fill-opacity:1;" d="M 256.15625 258.375 C 254.703125 258.636719 253.246094 258.828125 251.773438 258.957031 C 250.507812 259.070312 249.246094 259.121094 247.972656 259.132812 L 247.414062 259.132812 C 247.433594 259.019531 247.453125 258.90625 247.464844 258.785156 C 248.914062 258.808594 250.363281 258.785156 251.816406 258.714844 C 253.265625 258.644531 254.714844 258.542969 256.15625 258.375 "/><path style=" stroke:none;fill-rule:nonzero;fill:rgb(36.468506%,25.099182%,18.818665%);fill-opacity:1;" d="M 328.21875 176.597656 C 327.988281 185.550781 327.566406 194.660156 324.539062 203.085938 C 319.570312 216.96875 308.214844 227.425781 297.257812 237.289062 C 290.707031 243.1875 284.050781 249.164062 276.125 253 C 270.398438 255.777344 264.164062 257.363281 257.855469 258.179688 C 257.292969 258.253906 256.738281 258.324219 256.175781 258.375 C 265.828125 256.667969 275.019531 252.226562 283.035156 246.503906 C 293.300781 239.164062 301.894531 229.773438 310.300781 220.355469 C 313.558594 216.699219 316.84375 212.972656 319.191406 208.679688 C 321.992188 203.554688 323.382812 197.800781 324.332031 192.042969 C 328.722656 165.625 323.058594 135.628906 302.464844 118.488281 C 296.296875 113.351562 289.105469 109.613281 281.988281 105.90625 C 272.449219 100.960938 262.453125 95.886719 251.703125 95.828125 C 246.285156 95.785156 240.949219 97.039062 235.699219 98.40625 C 219.808594 102.554688 203.722656 108.054688 191.386719 118.878906 C 209.285156 101.179688 235.71875 92.503906 260.640625 96.148438 C 285.5625 99.792969 308.394531 115.671875 320.472656 137.757812 C 323.382812 143.074219 325.699219 148.734375 326.953125 154.652344 C 328.476562 161.839844 328.402344 169.261719 328.21875 176.597656 "/><path style=" stroke:none;fill-rule:nonzero;fill:rgb(36.468506%,25.099182%,18.818665%);fill-opacity:1;" d="M 49.726562 306.933594 C 52.878906 312.171875 56.40625 317.160156 60.332031 321.808594 C 57.992188 319.480469 55.816406 316.984375 53.933594 314.261719 C 52.339844 311.9375 50.960938 309.46875 49.726562 306.933594 "/><path style=" stroke:none;fill-rule:nonzero;fill:rgb(36.468506%,25.099182%,18.818665%);fill-opacity:1;" d="M 106.136719 145.558594 C 111.046875 143.835938 116.082031 142.121094 121.167969 140.960938 L 100.484375 147.6875 C 101.011719 147.429688 101.550781 147.195312 102.089844 146.960938 C 103.441406 146.496094 104.792969 146.027344 106.136719 145.558594 "/><path style=" stroke:none;fill-rule:nonzero;fill:rgb(36.468506%,25.099182%,18.818665%);fill-opacity:1;" d="M 45.328125 296.523438 C 46.703125 300.019531 48.101562 303.539062 49.726562 306.933594 C 46.207031 301.078125 43.148438 294.914062 40.546875 288.609375 C 35.566406 276.511719 32.148438 263.675781 31.363281 250.609375 C 29.671875 222.421875 40.765625 193.96875 60.105469 173.390625 C 70.980469 161.816406 84.375 152.71875 98.9375 146.449219 C 106.242188 143.308594 113.855469 140.867188 121.625 139.167969 C 123.640625 138.726562 125.789062 138.519531 127.972656 138.40625 C 119.105469 140.414062 110.40625 143.28125 102.089844 146.960938 C 99.289062 147.949219 96.492188 148.917969 93.699219 149.890625 L 100.484375 147.6875 C 79.144531 157.414062 60.398438 172.488281 47.90625 192.226562 C 44.1875 198.097656 41.035156 204.332031 38.511719 210.808594 C 34.1875 221.894531 31.703125 233.769531 32.003906 245.675781 C 32.449219 263.28125 38.882812 280.121094 45.328125 296.523438 "/><path style=" stroke:none;fill-rule:nonzero;fill:rgb(36.468506%,25.099182%,18.818665%);fill-opacity:1;" d="M 129.226562 138.34375 C 128.8125 138.351562 128.386719 138.371094 127.972656 138.40625 C 129.019531 138.15625 130.066406 137.929688 131.121094 137.722656 L 129.226562 138.34375 "/><path style=" stroke:none;fill-rule:nonzero;fill:rgb(36.468506%,25.099182%,18.818665%);fill-opacity:1;" d="M 134.714844 137.023438 C 133.515625 137.246094 132.3125 137.472656 131.121094 137.722656 L 132.394531 137.304688 C 133.171875 137.203125 133.941406 137.109375 134.714844 137.023438 "/><path style=" stroke:none;fill-rule:nonzero;fill:rgb(36.468506%,25.099182%,18.818665%);fill-opacity:1;" d="M 121.167969 140.960938 L 129.226562 138.34375 C 134.367188 138.101562 139.636719 138.171875 143.945312 136.601562 C 144.742188 137.792969 143.734375 139.511719 142.390625 140.015625 C 141.046875 140.515625 139.542969 140.214844 138.125 139.984375 C 132.460938 139.105469 126.785156 139.6875 121.167969 140.960938 "/><path style=" stroke:none;fill-rule:nonzero;fill:rgb(36.468506%,25.099182%,18.818665%);fill-opacity:1;" d="M 148.179688 136.847656 C 148.5625 136.859375 148.9375 136.882812 149.324219 136.910156 C 149.203125 137.160156 149.089844 137.417969 148.988281 137.679688 C 148.710938 137.429688 148.441406 137.148438 148.179688 136.847656 "/><path style=" stroke:none;fill-rule:nonzero;fill:rgb(36.468506%,25.099182%,18.818665%);fill-opacity:1;" d="M 160.910156 138.300781 C 160.394531 139.105469 159.90625 139.921875 159.429688 140.742188 C 158.363281 140.71875 157.316406 140.667969 156.316406 140.554688 C 156.664062 139.601562 157.027344 138.648438 157.417969 137.722656 C 158.59375 137.886719 159.75 138.070312 160.910156 138.300781 "/><path style=" stroke:none;fill-rule:nonzero;fill:rgb(36.468506%,25.099182%,18.818665%);fill-opacity:1;" d="M 252.433594 253.890625 C 252.324219 255.507812 252.105469 257.121094 251.816406 258.714844 C 251.808594 258.785156 251.785156 258.871094 251.773438 258.957031 C 251.246094 261.800781 250.5 264.628906 249.730469 267.421875 C 249.339844 268.882812 248.933594 270.34375 248.523438 271.800781 C 248.265625 272.699219 248.003906 273.609375 247.746094 274.511719 C 246.75 277.886719 245.714844 281.265625 244.597656 284.605469 C 244.410156 285.152344 244.234375 285.707031 244.035156 286.242188 C 238.960938 300.992188 232.226562 315.082031 221.566406 326.304688 C 208.992188 339.542969 191.84375 347.71875 174.183594 352.367188 C 140.433594 361.246094 102.027344 357.183594 74.585938 335.648438 C 69.359375 331.542969 64.613281 326.882812 60.332031 321.808594 C 62.507812 323.984375 64.808594 326.027344 67.148438 328 C 75.125 334.738281 83.640625 340.929688 93.023438 345.503906 C 125.703125 361.425781 165.75 355.738281 197.875 338.714844 C 206.902344 333.917969 215.621094 328.183594 222.253906 320.421875 C 230.691406 310.535156 235.265625 298.019531 239.613281 285.757812 C 239.675781 285.578125 239.738281 285.402344 239.800781 285.230469 C 239.902344 284.9375 240.007812 284.660156 240.101562 284.367188 C 241.289062 281.015625 242.46875 277.628906 243.558594 274.222656 C 243.820312 273.4375 244.054688 272.648438 244.296875 271.863281 C 245.578125 267.660156 246.667969 263.417969 247.414062 259.132812 C 247.433594 259.019531 247.453125 258.90625 247.464844 258.785156 C 248.117188 254.949219 248.480469 251.078125 248.4375 247.164062 C 248.316406 236.6875 245.257812 226.492188 242.171875 216.472656 C 238.558594 204.695312 234.738281 192.667969 227.277344 182.839844 C 220.472656 173.875 211.046875 167.3125 201.785156 160.90625 C 195.179688 156.332031 188.570312 151.757812 181.96875 147.195312 C 180.539062 146.199219 179.082031 145.195312 177.578125 144.304688 C 176.59375 143.703125 175.589844 143.160156 174.554688 142.699219 C 174.660156 142.472656 174.761719 142.242188 174.867188 142.015625 C 175.960938 142.398438 177.050781 142.804688 178.128906 143.226562 C 192.632812 148.859375 205.890625 157.90625 216.660156 169.164062 C 234.527344 187.863281 245.796875 212.28125 250.914062 237.628906 C 252 242.980469 252.820312 248.449219 252.433594 253.890625 "/><path style=" stroke:none;fill-rule:nonzero;fill:rgb(36.468506%,25.099182%,18.818665%);fill-opacity:1;" d="M 215.585938 186.816406 C 206.550781 176.328125 195.476562 167.542969 183.203125 161.113281 C 179.628906 159.242188 175.953125 157.5625 172.203125 156.082031 C 171.4375 155.769531 170.667969 155.484375 169.902344 155.203125 C 169.972656 154.964844 170.039062 154.714844 170.109375 154.476562 C 170.925781 154.6875 171.75 154.914062 172.554688 155.144531 C 189.78125 160.234375 204.632812 172.128906 215.585938 186.816406 "/><path style=" stroke:none;fill-rule:nonzero;fill:rgb(36.468506%,25.099182%,18.818665%);fill-opacity:1;" d="M 155.421875 148.425781 C 155 149.351562 154.59375 150.285156 154.21875 151.230469 C 153.828125 151.230469 153.433594 151.21875 153.039062 151.21875 C 153.238281 150.382812 153.457031 149.542969 153.683594 148.710938 C 153.734375 148.527344 153.785156 148.347656 153.839844 148.164062 C 154.367188 148.234375 154.894531 148.320312 155.421875 148.425781 "/><path style=" stroke:none;fill-rule:nonzero;fill:rgb(36.468506%,25.099182%,18.818665%);fill-opacity:1;" d="M 239.789062 258.34375 C 239.789062 258.386719 239.789062 258.429688 239.78125 258.472656 C 239.4375 262.972656 238.773438 267.445312 237.789062 271.832031 C 237.65625 272.421875 237.519531 273.003906 237.378906 273.582031 C 236.539062 277.019531 235.5 280.402344 234.269531 283.714844 C 234.125 284.097656 233.976562 284.46875 233.835938 284.84375 C 231.8125 290.019531 229.320312 295 226.324219 299.699219 C 219.0625 311.097656 209.21875 320.640625 198.628906 329.023438 C 193.488281 333.09375 188.132812 336.921875 182.261719 339.839844 C 163.613281 349.128906 141.480469 348.421875 121.085938 344.148438 C 104.5 340.679688 88.042969 334.816406 74.886719 324.136719 C 56.265625 309.003906 46.039062 285.492188 42.089844 261.832031 C 41.152344 256.191406 40.519531 250.46875 40.746094 244.753906 C 41.023438 237.558594 42.652344 230.476562 44.457031 223.503906 C 47.75 210.820312 51.777344 198.070312 59.308594 187.332031 C 73.1875 167.542969 97.019531 157.230469 120.464844 151.289062 C 127.269531 149.558594 134.375 148.15625 141.429688 147.730469 C 142.679688 147.644531 143.945312 147.605469 145.199219 147.605469 C 144.808594 148.816406 144.445312 150.035156 144.109375 151.257812 C 142.921875 151.28125 141.742188 151.324219 140.546875 151.375 C 132.347656 151.734375 124.183594 152.632812 116.144531 154.355469 C 99.820312 157.839844 83.96875 164.871094 71.832031 176.328125 C 54.097656 193.101562 45.78125 217.996094 44.640625 242.363281 C 44.324219 249.214844 44.515625 256.097656 45.46875 262.878906 C 49.714844 293.230469 69.949219 320.734375 97.375 334.425781 C 124.800781 348.125 158.632812 347.859375 186.152344 334.355469 C 199.269531 327.90625 211.046875 318.558594 219.773438 306.851562 C 224.902344 299.976562 228.839844 292.410156 231.644531 284.425781 C 231.773438 284.078125 231.894531 283.714844 232.007812 283.351562 C 233.128906 280.042969 234.0625 276.667969 234.796875 273.238281 C 234.910156 272.742188 235.015625 272.234375 235.109375 271.738281 C 236.011719 267.21875 236.589844 262.609375 236.84375 257.972656 C 236.859375 257.953125 236.859375 257.929688 236.84375 257.910156 C 237.996094 237.785156 233.273438 217.019531 223.578125 199.292969 C 221.21875 194.984375 218.542969 190.789062 215.585938 186.816406 C 224.304688 196.917969 231.132812 208.617188 235.316406 221.289062 C 239.242188 233.167969 240.742188 245.871094 239.789062 258.34375 "/><path style=" stroke:none;fill-rule:nonzero;fill:rgb(36.468506%,25.099182%,18.818665%);fill-opacity:1;" d="M 167.882812 169.199219 C 167.644531 169.128906 167.417969 169.0625 167.175781 169 C 167.191406 168.929688 167.199219 168.855469 167.210938 168.785156 C 167.4375 168.90625 167.667969 169.054688 167.882812 169.199219 "/><path style=" stroke:none;fill-rule:nonzero;fill:rgb(36.468506%,25.099182%,18.818665%);fill-opacity:1;" d="M 211.667969 208.949219 C 206.445312 202.105469 200.191406 196 193.996094 189.972656 C 187.824219 183.980469 181.503906 177.875 173.707031 174.238281 C 171.800781 173.347656 169.425781 171.980469 169.777344 169.902344 C 187.511719 177.875 202.46875 191.835938 211.667969 208.949219 "/><path style=" stroke:none;fill-rule:nonzero;fill:rgb(36.468506%,25.099182%,18.818665%);fill-opacity:1;" d="M 150.5625 166.089844 L 150.519531 166.089844 C 150.5625 165.730469 150.605469 165.355469 150.632812 164.984375 L 150.675781 164.984375 C 150.632812 165.355469 150.597656 165.71875 150.5625 166.089844 "/><path style=" stroke:none;fill-rule:nonzero;fill:rgb(36.468506%,25.099182%,18.818665%);fill-opacity:1;" d="M 225.613281 254.265625 C 225.589844 254.671875 225.570312 255.074219 225.535156 255.484375 C 225.195312 260.550781 224.324219 265.589844 222.980469 270.507812 C 222.9375 270.671875 222.882812 270.839844 222.84375 271.003906 C 221.941406 274.214844 220.824219 277.359375 219.519531 280.414062 C 219.375 280.734375 219.238281 281.046875 219.105469 281.351562 C 217.25 285.515625 215.023438 289.492188 212.441406 293.230469 C 197.144531 315.347656 170.742188 328.632812 143.90625 330.546875 C 137.367188 331.007812 130.761719 330.859375 124.339844 329.59375 C 99.789062 324.746094 80.035156 309.617188 68.804688 287.75 C 58.222656 267.132812 53.582031 242.125 61.597656 219.824219 C 68.976562 199.300781 84.832031 181.6875 105.007812 173.382812 C 115.574219 169.023438 126.976562 167.210938 138.34375 165.925781 C 139.148438 165.832031 139.949219 165.742188 140.753906 165.65625 C 140.953125 165.640625 141.160156 165.617188 141.351562 165.597656 C 141.335938 165.71875 141.324219 165.84375 141.316406 165.96875 C 140.320312 165.996094 139.316406 166.0625 138.320312 166.132812 C 114.382812 167.902344 91.074219 179.546875 76.484375 198.667969 C 55.828125 225.71875 54.34375 266.015625 73.386719 294.222656 C 92.425781 322.429688 130.761719 336.132812 163.222656 325.90625 C 172.523438 322.980469 181.203125 318.339844 189.273438 312.863281 C 198.152344 306.851562 206.457031 299.65625 212.121094 290.546875 C 214.0625 287.441406 215.65625 284.140625 216.972656 280.726562 C 217.105469 280.402344 217.21875 280.070312 217.34375 279.75 C 218.472656 276.675781 219.375 273.53125 220.085938 270.328125 C 220.121094 270.207031 220.152344 270.085938 220.171875 269.972656 C 220.285156 269.460938 220.386719 268.941406 220.492188 268.4375 C 221.414062 263.816406 221.964844 259.132812 222.140625 254.410156 C 222.15625 253.839844 222.179688 253.273438 222.179688 252.703125 C 222.441406 238.054688 219.09375 223.332031 212.382812 210.300781 C 212.144531 209.847656 211.90625 209.398438 211.667969 208.949219 C 213.621094 211.492188 215.429688 214.144531 217.042969 216.917969 C 223.570312 228.199219 226.28125 241.265625 225.613281 254.265625 "/></g></svg>